PathFileType	4	(x/y/z)	S05_M20_T02
DataRate	CameraRate	NumFrames	NumMarkers	Units	OrigDataRate	OrigDataStartFrame	OrigNumFrames
240	240	5	50	mm	240	478	546
Frame#	Time	Sternum			R.Acromium			L.Acromium			Top.Head			R.ASIS			L.ASIS			R.PSIS			L.PSIS			R.Great.Tro			L.Great.Tro			R.Iliac.Crest			L.Iliac.Crest			V.Sacral			R.Thigh.Upper.Post			R.Thigh.Lower.Ant			R.Thigh.Lower.Post			R.Thigh.Upper.Ant			R.Knee.Lat			R.Knee.Med			R.Shank.Upper.Post			R.Shank.Lower.Ant			R.Shank.Lower.Post			R.Shank.Upper.Ant			R.Ankle.Lat			R.Ankle.Med			R.Heel.Upper			R.Heel.Med			R.Heel.Lat			R.Toe.Lat			R.Toe.Med			R.Toe.Tip			L.Thigh.Upper.Post			L.Thigh.Lower.Ant			L.Thigh.Lower.Post			L.Thigh.Upper.Ant			L.Knee.Lat			L.Shank.Upper.Post			L.Shank.Lower.Ant			L.Shank.Lower.Post			L.Shank.Upper.Ant			L.Ankle.Lat			L.Ankle.Med			L.Heel.Upper			L.Heel.Med			L.Heel.Lat			L.Toe.Lat			L.Toe.Med			L.Toe.Tip			Cervical.Spine			Back			
		X1	Y1	Z1	X2	Y2	Z2	X3	Y3	Z3	X4	Y4	Z4	X5	Y5	Z5	X6	Y6	Z6	X7	Y7	Z7	X8	Y8	Z8	X9	Y9	Z9	X10	Y10	Z10	X11	Y11	Z11	X12	Y12	Z12	X13	Y13	Z13	X14	Y14	Z14	X15	Y15	Z15	X16	Y16	Z16	X17	Y17	Z17	X18	Y18	Z18	X19	Y19	Z19	X20	Y20	Z20	X21	Y21	Z21	X22	Y22	Z22	X23	Y23	Z23	X24	Y24	Z24	X25	Y25	Z25	X26	Y26	Z26	X27	Y27	Z27	X28	Y28	Z28	X29	Y29	Z29	X30	Y30	Z30	X31	Y31	Z31	X32	Y32	Z32	X33	Y33	Z33	X34	Y34	Z34	X35	Y35	Z35	X36	Y36	Z36	X37	Y37	Z37	X38	Y38	Z38	X39	Y39	Z39	X40	Y40	Z40	X41	Y41	Z41	X42	Y42	Z42	X43	Y43	Z43	X44	Y44	Z44	X45	Y45	Z45	X46	Y46	Z46	X47	Y47	Z47	X48	Y48	Z48	X49	Y49	Z49	X50	Y50	Z50	

478	1.9875	1621.6	1250.6	275.11	1544.6	1515.4	429.89	1537.5	1537	105.02	1531.1	1811	256	1568	1000.7	398.7	1561.7	1010.2	149.38	1363.9	1016.4	325.55	1359	1027.1	233.15	1499.1	917.79	468.81	1458.8	938.21	80.051	1479.2	1081.5	444.89	1465.4	1087	107.2	1350	985.56	289.96	1648	730.62	467.93	1720.4	689.83	407.54	1676.9	646.52	446.99	1686.8	771.03	427.67	1710.6	562.67	423.47	1720.7	550.61	288.08	1746	317.55	414.54	1831.1	287.45	421.35	1782.4	250.05	400.55	1795	355.78	432.53	1870.1	183.1	406.08	1879.8	219.58	321.81	1849.9	103.52	344.52	1877.9	85.147	315.02	1871.1	83.226	380.65	2011.2	164.87	442.17	2037.6	201.27	328.86	2075.8	250.04	379.23	1420.4	701.32	93.455	1487.7	616.46	118.58	1415.6	607.52	114.79	1499.6	704.27	95.729	1408.3	514.95	125.35	1305.6	329.69	132.98	1359.4	258.61	139.35	1290.4	260.77	156.18	1371.3	327.4	124.12	1293.9	120.56	168.98	1328.8	132.69	255.28	1229.6	72.722	224.47	1240.4	46.826	255.99	1230.3	46.485	194.94	1410.2	36.64	135.5	1437.8	48.062	254.66	1500.4	54.793	199.4	1488.7	1560.1	269.93	1361.9	1288.9	273.05
479	1.9917	1626.6	1249.4	275.3	1549.7	1514	430.61	1542.4	1536.2	105.83	1536.2	1809.9	257.3	1573.5	999.29	398.63	1566.9	1009.2	149.37	1369.4	1015.3	325.94	1364.4	1026.2	233.61	1504.7	916.15	468.7	1463.6	937.56	80.121	1484.8	1080.1	445.12	1470.4	1086.1	107.45	1355.3	984.59	290.31	1652.3	728.12	467.54	1724.4	686.97	407.05	1680.7	643.87	446.57	1691.3	768.33	427.2	1714.5	560.43	423.05	1724.9	548.32	287.3	1753.8	316.1	414.86	1839.4	287.48	421.94	1791.4	249.18	401.16	1802.1	355.21	432.8	1880.5	183.62	406.94	1889.8	220.18	322.66	1861.9	103.53	345.47	1890.3	85.649	316.07	1883.4	83.689	381.64	2021.9	167.94	443.43	2048	204.76	330.13	2085.1	254.31	380.6	1423.8	700.96	93.407	1490.7	615.71	118.48	1418.6	607.18	114.72	1503.1	703.46	95.592	1410.6	514.58	125.29	1306.9	329.86	133	1360.3	258.5	139.31	1291.4	261.02	156.22	1372.6	327.21	124.07	1294.2	120.7	169.05	1329.1	132.73	255.35	1229.7	72.813	224.59	1240.5	46.887	256.1	1230.4	46.58	195.06	1410.2	36.604	135.49	1437.9	48	254.65	1500.5	54.651	199.36	1493.7	1558.9	270.73	1366.9	1287.7	273.65
480	1.9958	1631.7	1248.2	275.52	1554.9	1512.5	431.36	1547.3	1535.3	106.65	1541.3	1808.7	258.62	1579.1	997.87	398.56	1572.1	1008.2	149.36	1374.9	1014.2	326.32	1369.8	1025.3	234.06	1510.3	914.5	468.59	1468.4	936.89	80.188	1490.4	1078.7	445.37	1475.5	1085.2	107.71	1360.7	983.6	290.66	1656.7	725.66	467.15	1728.5	684.17	406.57	1684.6	641.28	446.15	1695.7	765.68	426.74	1718.5	558.25	422.66	1729.1	546.08	286.57	1761.5	314.69	415.18	1847.5	287.46	422.5	1800.2	248.33	401.76	1809	354.62	433.07	1890.6	184.1	407.76	1899.4	220.73	323.48	1873.5	103.55	346.38	1902.3	86.143	317.07	1895.2	84.135	382.59	2032.2	170.81	444.66	2058	208.03	331.37	2094	258.28	381.93	1427.2	700.57	93.353	1493.8	614.94	118.38	1421.6	606.8	114.65	1506.6	702.62	95.453	1413	514.18	125.21	1308.2	330.02	133	1361.3	258.37	139.27	1292.4	261.27	156.25	1373.9	327	124.02	1294.4	120.84	169.11	1329.5	132.77	255.41	1229.7	72.909	224.72	1240.6	46.953	256.2	1230.4	46.677	195.18	1410.2	36.569	135.48	1437.9	47.936	254.64	1500.6	54.506	199.33	1498.7	1557.8	271.56	1372	1286.5	274.26
481	2	1636.8	1247	275.75	1560	1511.1	432.12	1552.2	1534.4	107.49	1546.4	1807.5	259.96	1584.7	996.41	398.51	1577.3	1007.2	149.35	1380.3	1013.1	326.7	1375.2	1024.4	234.52	1515.8	912.83	468.51	1473.2	936.18	80.253	1496.1	1077.2	445.62	1480.5	1084.3	107.98	1366.1	982.59	291	1661.1	723.26	466.74	1732.6	681.45	406.09	1688.7	638.75	445.72	1700.2	763.11	426.27	1722.5	556.14	422.31	1733.5	543.91	285.9	1768.9	313.32	415.49	1855.4	287.39	423.05	1808.7	247.5	402.35	1815.8	354	433.34	1900.2	184.51	408.54	1908.7	221.2	324.26	1884.6	103.56	347.23	1913.8	86.598	318.02	1906.6	84.533	383.48	2042.1	173.43	445.86	2067.6	211.03	332.58	2102.6	261.92	383.22	1430.7	700.14	93.294	1496.9	614.13	118.26	1424.6	606.39	114.57	1510.1	701.75	95.313	1415.4	513.76	125.14	1309.5	330.16	132.98	1362.3	258.22	139.22	1293.4	261.52	156.27	1375.3	326.77	123.96	1294.7	121	169.16	1329.8	132.82	255.48	1229.8	73.012	224.85	1240.7	47.026	256.31	1230.5	46.775	195.3	1410.3	36.535	135.48	1438	47.868	254.64	1500.6	54.358	199.29	1503.8	1556.6	272.4	1377.2	1285.2	274.89
482	2.0042	1641.9	1245.8	276.01	1565.2	1509.6	432.9	1557.1	1533.4	108.34	1551.5	1806.3	261.3	1590.2	994.92	398.46	1582.5	1006.1	149.36	1385.8	1011.9	327.08	1380.6	1023.4	234.97	1521.4	911.16	468.43	1478	935.45	80.316	1501.7	1075.7	445.88	1485.6	1083.3	108.24	1371.4	981.57	291.34	1665.5	720.92	466.33	1736.8	678.83	405.61	1692.8	636.31	445.3	1704.8	760.62	425.8	1726.7	554.09	421.99	1738	541.82	285.29	1776.2	311.97	415.8	1863	287.24	423.57	1816.9	246.66	402.91	1822.5	353.34	433.61	1909.5	184.83	409.27	1917.7	221.58	324.99	1895.2	103.52	348.02	1924.7	86.984	318.9	1917.4	84.854	384.31	2051.4	175.78	447	2076.7	213.74	333.73	2110.9	265.21	384.47	1434.2	699.68	93.23	1500	613.3	118.13	1427.7	605.95	114.48	1513.7	700.85	95.172	1417.9	513.3	125.05	1310.9	330.29	132.95	1363.4	258.06	139.18	1294.5	261.75	156.27	1376.7	326.51	123.91	1294.9	121.16	169.21	1330.2	132.87	255.56	1229.9	73.123	224.98	1240.8	47.106	256.42	1230.5	46.879	195.43	1410.3	36.504	135.48	1438.1	47.797	254.63	1500.7	54.207	199.26	1508.8	1555.4	273.26	1382.3	1283.9	275.52
